<svg width="32" height="32" viewBox="0 0 32 32" fill="none" xmlns="http://www.w3.org/2000/svg">
  <path d="M2 6C2 4.89543 2.89543 4 4 4H12L14 7H28C29.1046 7 30 7.89543 30 9V12H2V6Z" fill="#EC407A"/>
  <path d="M1 12L3 26C3.16519 27.0489 4.05922 28 5.11803 28H26.882C27.9408 28 28.8348 27.0489 29 26L31 12H1Z" 
        fill="#EC407A" fill-opacity="0.7"/>
  <path d="M2 6C2 4.89543 2.89543 4 4 4H12L14 7H28C29.1046 7 30 7.89543 30 9V12M1 12L3 26C3.16519 27.0489 4.05922 28 5.11803 28H26.882C27.9408 28 28.8348 27.0489 29 26L31 12H1Z" 
        stroke="#EC407A" stroke-width="1.5" stroke-opacity="0.5"/>
</svg>